<?xml version="1.0" encoding="utf-8"?><svg xmlns="http://www.w3.org/2000/svg" xmlns:xlink="http://www.w3.org/1999/xlink" version="1.1" class="page" pageAlignment="none" x="0px" y="0px" width="160px" height="100px" viewBox="0 0 160 100" enable-background="new 0 0 160 100" xml:space="preserve"><defs xmlns=""/><style xmlns="" type="text/css"/><style xmlns="" type="text/css"/><g xmlns="" type="LAYER" name="workspace" id="workspace" locked="true"/><path xmlns="" class="st0 " width="156" height="93.69999999999999" stroke-miterlimit="3" stroke="none" fill="none" d="M80,3 C36.9,3 2,23.9 2,49.8 C2,75.69999999999999 36.9,96.69999999999999 80,96.69999999999999 C123.1,96.69999999999999 158,75.69999999999999 158,49.79999999999999 C158,23.89999999999999 123.1,3 80,3 "/><g xmlns=""/><path xmlns="" class="st0 " width="77.99999999999999" height="46.79999999999999" stroke-miterlimit="3" stroke="none" fill="none" d="M158,49.8 C158,23.9 123.1,3 80,3 "/><path xmlns="" class="st0 " width="77.99999999999999" height="93.69999999999999" stroke-miterlimit="3" stroke="none" fill="none" d="M80,3 C36.9,3 2,23.9 2,49.8 C2,75.69999999999999 36.9,96.69999999999999 80,96.69999999999999 "/><g xmlns=""/><g xmlns=""/><g xmlns=""/><g xmlns="" transform="matrix(1 0 0 1 -1.754142128638545 -8.507559676234678)"><path xmlns="" class="st1 " width="17.300000000000004" height="22.499999999999993" stroke-miterlimit="3" stroke="none" fill="#FFFFFF" d="M22.6,41.3 L22.6,41.8 L20.700000000000003,42.3 L20.700000000000003,63 L27.6,63 C27.6,62.2 27.700000000000003,61.4 27.900000000000002,60.8 C28.1,60.199999999999996 28.400000000000002,59.699999999999996 28.6,59.199999999999996 C28.900000000000002,58.699999999999996 29.3,58.3 29.700000000000003,57.99999999999999 L30.700000000000003,57.99999999999999 L30.700000000000003,63.79999999999999 L13.4,63.79999999999999 L13.4,63.29999999999999 L15.3,62.79999999999999 L15.3,42.3 L13.4,41.8 L13.4,41.3 L22.6,41.3 Z "/><path xmlns="" class="st1 " width="23.300000000000004" height="22.9" stroke-miterlimit="3" stroke="none" fill="#FFFFFF" d="M36.7,63.4 L36.7,63.9 L30.700000000000003,63.9 L30.700000000000003,63.4 L33.300000000000004,62.4 L42.2,41 L43.2,41 L52.400000000000006,62.9 L54.00000000000001,63.4 L54.00000000000001,63.9 L50.10000000000001,63.9 C48.900000000000006,63.9 48.00000000000001,63.6 47.30000000000001,63.1 C46.600000000000016,62.6 46.10000000000001,61.9 45.80000000000001,61.2 L44.20000000000001,57.300000000000004 L36.50000000000001,57.300000000000004 L34.400000000000006,62.400000000000006 L36.7,63.4 Z M36.8,56.4 L43.8,56.4 L40.3,48 L36.8,56.4 Z "/><path xmlns="" class="st1 " width="29.19999999999999" height="22.799999999999997" stroke-miterlimit="3" stroke="none" fill="#FFFFFF" d="M83.4,41.3 L83.4,41.8 L81.5,42.3 L81.5,62.9 L83.4,63.4 L83.4,63.9 L74.2,63.9 L74.2,63.4 L76.10000000000001,62.9 L76.10000000000001,45.3 L68.50000000000001,64.1 L67.50000000000001,64.1 L57.70000000000002,45.3 L57.70000000000002,62.4 L60.30000000000002,63.4 L60.30000000000002,63.9 L54.20000000000002,63.9 L54.20000000000002,63.4 L56.80000000000002,62.4 L56.80000000000002,42.3 L54.90000000000002,41.8 L54.90000000000002,41.3 L58.90000000000002,41.3 C59.50000000000002,41.3 60.00000000000002,41.4 60.50000000000002,41.5 C61.00000000000002,41.6 61.30000000000002,41.8 61.700000000000024,42.1 C62.00000000000002,42.300000000000004 62.300000000000026,42.6 62.60000000000002,43 C62.800000000000026,43.3 63.10000000000002,43.7 63.300000000000026,44.1 L70.30000000000003,57.5 L75.70000000000003,44.1 C75.90000000000003,43.6 76.10000000000004,43.300000000000004 76.30000000000003,42.9 C76.50000000000003,42.6 76.80000000000003,42.3 77.10000000000002,42 C77.40000000000002,41.8 77.80000000000003,41.6 78.30000000000003,41.5 C78.80000000000003,41.4 79.40000000000002,41.3 80.00000000000003,41.3 C80,41.3 83.4,41.3 83.4,41.3 Z "/><path xmlns="" class="st1 " width="19.299999999999997" height="22.5" stroke-miterlimit="3" stroke="none" fill="#FFFFFF" d="M97.7,52.1 C99.2,52.2 100.60000000000001,52.4 101.8,52.800000000000004 C102.3,53.00000000000001 102.8,53.2 103.3,53.50000000000001 C103.8,53.80000000000001 104.2,54.10000000000001 104.6,54.50000000000001 C104.99999999999999,54.900000000000006 105.3,55.400000000000006 105.5,55.900000000000006 C105.7,56.400000000000006 105.9,57.00000000000001 105.9,57.7 C105.9,58.6 105.7,59.400000000000006 105.4,60.1 C105.10000000000001,60.9 104.5,61.5 103.7,62 C102.9,62.5 101.9,63 100.60000000000001,63.3 C99.30000000000001,63.599999999999994 97.80000000000001,63.8 95.9,63.8 L86.60000000000001,63.8 L86.60000000000001,63.3 L88.50000000000001,62.8 L88.50000000000001,42.3 L86.60000000000001,41.8 L86.60000000000001,41.3 L95.30000000000001,41.3 C97.00000000000001,41.3 98.50000000000001,41.5 99.70000000000002,41.8 C100.90000000000002,42.099999999999994 101.90000000000002,42.5 102.60000000000002,43 C103.30000000000003,43.5 103.90000000000002,44.1 104.20000000000002,44.8 C104.50000000000001,45.5 104.70000000000002,46.199999999999996 104.70000000000002,47 C104.70000000000002,47.6 104.60000000000002,48.2 104.40000000000002,48.7 C104.20000000000002,49.2 103.90000000000002,49.6 103.60000000000002,50 C103.30000000000003,50.4 102.90000000000002,50.6 102.50000000000003,50.9 C102.10000000000002,51.1 101.60000000000002,51.3 101.20000000000003,51.5 C100.2,51.9 99,52.1 97.7,52.1 L97.7,52.1 Z M93.8,51.6 L95.2,51.6 C95.7,51.6 96.2,51.5 96.7,51.300000000000004 C97.2,51.10000000000001 97.60000000000001,50.800000000000004 98,50.300000000000004 C98.4,49.900000000000006 98.7,49.400000000000006 98.9,48.800000000000004 C99.10000000000001,48.2 99.2,47.6 99.2,46.900000000000006 C99.2,46.20000000000001 99.10000000000001,45.50000000000001 98.9,44.900000000000006 C98.7,44.300000000000004 98.4,43.800000000000004 98,43.400000000000006 C97.6,43.00000000000001 97.2,42.7 96.7,42.400000000000006 C96.2,42.2 95.7,42.00000000000001 95.2,42.00000000000001 L93.8,42.00000000000001 L93.8,51.6 Z M93.8,52.4 L93.8,63 L95.89999999999999,63 C97.19999999999999,63 98.3,62.5 99.1,61.6 C100,60.7 100.39999999999999,59.4 100.39999999999999,57.7 C100.39999999999999,56.00000000000001 99.99999999999999,54.7 99.1,53.800000000000004 C98.2,52.900000000000006 97.19999999999999,52.400000000000006 95.89999999999999,52.400000000000006 C95.9,52.4 93.8,52.4 93.8,52.4 Z "/><path xmlns="" class="st1 " width="20.099999999999994" height="22.599999999999994" stroke-miterlimit="3" stroke="none" fill="#FFFFFF" d="M116.7,41.3 C120.60000000000001,41.3 123.5,42.3 125.5,44.3 C127.5,46.3 128.6,49 128.6,52.599999999999994 C128.6,56.19999999999999 127.6,58.89999999999999 125.5,60.89999999999999 C123.5,62.89999999999999 120.5,63.89999999999999 116.7,63.89999999999999 L108.5,63.89999999999999 L108.5,63.39999999999999 L110.4,62.89999999999999 L110.4,42.3 L108.5,41.8 L108.5,41.3 L116.7,41.3 Z M115.7,42.1 L115.7,63 L116.7,63 C117.60000000000001,63 118.5,62.8 119.2,62.5 C120,62.1 120.60000000000001,61.6 121.2,60.7 C121.7,59.900000000000006 122.2,58.800000000000004 122.5,57.5 C122.8,56.199999999999996 123,54.5 123,52.5 C123,50.5 122.8,48.9 122.5,47.5 C122.2,46.2 121.8,45.1 121.2,44.3 C120.60000000000001,43.49999999999999 120,42.9 119.2,42.5 C118.4,42.1 117.60000000000001,42 116.7,42 L115.7,42.1 L115.7,42.1 Z "/><path xmlns="" class="st1 " width="23.19999999999999" height="22.9" stroke-miterlimit="3" stroke="none" fill="#FFFFFF" d="M134.2,63.4 L134.2,63.9 L128.2,63.9 L128.2,63.4 L130.79999999999998,62.4 L139.6,41 L140.6,41 L149.79999999999998,62.9 L151.39999999999998,63.4 L151.39999999999998,63.9 L147.49999999999997,63.9 C146.29999999999998,63.9 145.39999999999998,63.6 144.69999999999996,63.1 C143.99999999999994,62.6 143.49999999999997,61.9 143.19999999999996,61.2 L141.59999999999997,57.300000000000004 L133.89999999999998,57.300000000000004 L131.79999999999998,62.400000000000006 L134.2,63.4 Z M134.3,56.4 L141.3,56.4 L137.8,47.9 L134.3,56.4 Z "/></g></svg>